<?xml version="1.0" encoding="utf-8"?>
<!-- Generator: Adobe Illustrator 16.0.0, SVG Export Plug-In . SVG Version: 6.00 Build 0)  -->
<!DOCTYPE svg PUBLIC "-//W3C//DTD SVG 1.1//EN" "http://www.w3.org/Graphics/SVG/1.1/DTD/svg11.dtd">
<svg version="1.1" xmlns="http://www.w3.org/2000/svg" xmlns:xlink="http://www.w3.org/1999/xlink" x="0px" y="0px"
	 width="787.734px" height="285.536px" viewBox="0 0 787.734 285.536" enable-background="new 0 0 787.734 285.536"
	 xml:space="preserve">
<g id="gecko">
	<g id="HATCH_9_">
		<path fill-rule="evenodd" clip-rule="evenodd" fill="#73A950" d="M173.122,103.069l3.455,3.686l2.534,3.686l2.305,1.843
			l2.994,1.843l3.226,0.461l3.917-0.461l2.995-0.461c2.073,0,3.686,0,3.686,0c1.383,1.382,1.613,2.765,1.613,2.765
			c-3.687,2.304-5.99,4.147-6.221,6.912s1.843,5.069,4.607,5.069c2.535,0,4.839-1.843,5.069-4.608c0-0.921-0.23-1.843-0.461-2.765
			l1.151-2.304c2.304-0.46,2.995,0,2.995,0c-0.921,3.687-0.921,6.912,0.691,8.755c1.843,2.304,5.068,2.304,6.911,0.461
			c2.074-1.843,2.074-5.068,0.23-6.912c-0.46-0.461-1.382-0.921-2.304-1.382l-1.151-2.765c0.921-2.304,2.534-2.765,2.534-2.765
			c2.765,3.226,5.529,4.607,8.063,4.147c2.534-0.921,4.146-3.226,3.456-5.99c-0.461-2.765-3.226-4.147-5.76-3.686
			c-2.305,1.382-3.456,0.921-3.456,0.921c-2.304-0.46-2.765-1.382-2.765-1.382c0-1.843,0.922-2.765,0.922-2.765
			c3.455,0.461,6.22-0.461,7.603-3.226c1.151-2.304,0.23-5.068-2.304-6.451c-2.305-0.921-5.299,0-6.451,2.304
			c-0.461,2.304-3.226,4.607-3.226,4.607c-1.843,0-2.304-0.921-2.304-0.921c-0.691-1.382-0.922-2.765-0.922-2.765
			c2.304-1.382,2.995-4.608,1.383-6.912c-1.383-1.843-4.378-2.765-6.682-1.382c-2.073,1.382-2.765,4.608-1.382,6.912
			c1.843,1.382,2.073,2.765,2.073,2.765v2.765c-1.843,1.382-3.226,1.843-3.226,1.843h-2.534c-0.23,0-5.299-0.921-5.299-0.921
			c-2.304-0.921-4.146-2.304-4.146-2.304l-2.765-5.529l-2.074-5.529l-0.461-3.226l1.383-2.765l3.456-2.304l5.99-1.382l9.676-2.765
			l7.603-1.843l7.373-2.304l5.989-2.304l3.687-2.304l4.377-4.607l2.995-4.608l3.226-6.912l1.844-5.068
			c0-2.304-0.461-4.608-0.461-4.608c-0.922-1.382-2.995-3.686-2.995-3.686l-5.76-2.304l-8.063-0.921l-6.912-0.921l-6.911,0.921
			l-5.99,2.304l-7.603,3.687l-6.451,5.068l-9.216,6.451l-6.911,4.147l-4.607,1.382l-4.378-1.382l-4.377-3.226l-3.226-4.607
			l-2.765-4.608l-0.691-4.147l0.461-8.294l0.23-7.372c1.843-1.843,4.838-1.843,4.838-1.843c0.922,2.304,3.456,3.686,6.221,3.226
			c2.534-0.922,3.917-3.687,3.226-5.99c-0.922-2.765-3.456-4.147-5.99-3.226c-2.534,1.382-4.147,1.382-4.147,1.382
			c-2.073-2.304-2.073-3.225-2.073-3.225l2.534-2.765c2.534,0.46,5.068-1.382,5.529-3.687c0.461-2.765-1.382-5.529-4.146-5.99
			c-2.534,0-5.068,1.382-5.529,4.147c0,0.921,0,1.843,0.461,2.765c-1.844,1.382-3.226,1.382-3.226,1.382
			c-1.383-0.461-2.534-2.304-2.534-2.304c2.073-2.765,2.765-5.529,1.151-7.833c-1.382-2.304-4.377-2.765-6.681-1.382
			c-2.074,1.382-2.765,4.608-1.383,6.451c0.691,0.922,1.613,1.843,2.534,2.304c0,2.304-0.69,3.686-0.69,3.686
			c-1.383,0.921-2.765,0.461-2.765,0.461c-2.074-3.226-4.378-5.529-7.143-5.069c-2.534,0-4.607,2.304-4.377,5.069
			s2.534,4.607,5.299,4.607c2.073-0.921,4.607,0,4.607,0c0.922,1.843,0.23,2.304,0.23,2.304l-2.995,1.382
			c-2.304-1.382-5.299-0.461-6.681,1.843c-1.152,2.304-0.461,5.529,1.843,6.451c2.304,1.382,5.299,0.46,6.681-1.843
			c0.461-1.843,2.765-2.304,2.765-2.304c1.844,0,2.535,1.382,2.535,1.382c0.229,1.843-0.23,7.833-0.23,7.833l-1.844,7.373
			l-1.151,4.607v3.226l0.921,3.686l2.534,5.069l3.226,6.451l0.922,3.225c-0.461,1.843-1.612,3.687-1.612,3.687
			c-2.305,1.382-10.599,6.912-10.599,6.912l-7.833,5.99l-7.833,8.294l-4.838,6.451l-4.147,6.912l-2.995,6.912l-2.304,7.372
			l-2.073,6.451l-1.383,6.451l-0.69,6.451l-0.461,2.765l-0.922,2.765c-0.921,0.922-2.765,1.844-2.765,1.844
			c-1.612,0.46-4.377-0.922-4.377-0.922L89.722,145l-2.995-2.304l-2.534-1.382l-2.995-0.461h-2.995l-4.147,1.843l-3.225,1.843
			l-4.378,3.226l-4.146,2.765c-2.074,0.921-4.147,1.382-4.147,1.382c-2.073-2.304-2.995-4.607-2.995-4.607
			c2.534-3.226,3.456-5.99,2.304-8.755c-1.382-2.304-4.146-3.226-6.681-1.843c-2.304,0.921-3.226,4.146-2.073,6.45
			c2.304,2.305,1.612,4.608,1.612,4.608c-1.612,1.843-3.226,2.304-3.226,2.304c-1.151-0.461-3.226-2.765-3.226-2.765
			c0.461-2.304-1.151-5.068-3.686-5.529s-5.299,0.921-5.76,3.687c-0.691,2.765,1.151,5.068,3.686,5.529
			c2.074,0,4.608,2.765,4.608,2.765c0.461,1.843,0,3.225,0,3.225c-1.152,0.461-4.378,1.844-4.378,1.844
			c-1.843-1.844-4.838-1.844-6.681,0.461c-1.844,1.843-1.844,5.068,0.23,6.911c1.843,1.843,5.068,1.383,6.911-0.461
			c0.922-1.843,4.147-2.765,4.147-2.765c2.073,1.383,2.534,1.844,2.534,1.844c0.23,1.382,0,3.225,0,3.225
			c-2.995,2.305-4.608,5.069-3.917,7.373c0.461,2.765,3.226,4.146,5.76,3.686c2.534-0.46,4.147-3.225,3.687-5.989
			c-0.23-0.922-0.691-1.383-1.613-2.305c0.922-1.843,2.305-3.225,2.305-3.225c1.612-0.461,2.534,0,2.534,0l2.073,2.765
			c-1.152,2.304-0.461,5.529,1.843,6.911c2.534,1.383,5.299,0.461,6.682-1.843c1.382-2.304,0.461-5.529-1.844-6.912
			c-0.921-0.461-1.843-0.461-2.765-0.461l-1.151-2.765c0.23-2.304,1.151-2.765,1.151-2.765c1.152-0.921,6.682-3.225,6.682-3.225
			l5.068-1.383h2.995l2.534,0.922l4.378,2.304l8.523,5.99l6.221,5.529l2.995,3.686l2.073,4.608l0.461,7.833l-1.151,5.99
			l-2.074,5.529l-2.534,4.607l-4.607,4.607l-6.682,4.608l-8.984,3.226l-8.294,2.764l-11.52,2.766l-10.598,1.382l-7.143,1.843
			l-8.294,2.765l-7.142,3.226l-6.912,4.607l-5.989,5.529l-4.147,6.451l-3.226,5.99l-2.073,8.755l-0.922,5.99l0.23,6.911l0.691,5.529
			l1.152,3.687l0.46-5.99l1.613-6.451l2.304-6.45l3.687-5.99l3.916-4.607l4.147-4.608l4.607-4.146l4.607-2.304l6.912-2.305
			l10.367-2.304l14.054-2.304l15.436-0.922l11.75-2.304l7.603-2.304l8.755-3.226l5.99-3.226l6.912-4.607l4.607-4.146l3.916-5.99
			l3.917-8.294l2.995-8.294l1.612-5.529c0.691-2.305,2.305-4.147,2.305-4.147l2.534-1.843l3.916-1.843l2.995-1.383
			c1.843-0.922,5.068-1.843,5.068-1.843l2.995,0.461l4.378,2.304l6.911,5.529l5.76,3.686c1.612,0.461,3.226,1.383,3.226,1.383
			c0.922,1.843,0.922,3.226,0.922,3.226c-0.691,1.843-1.383,3.225-1.383,3.225c-2.534-0.46-4.838,1.844-5.068,4.608
			c0,2.304,2.073,4.607,4.607,5.068c2.765,0,5.068-2.304,5.068-4.607c-0.46-2.304,0.691-4.608,0.691-4.608
			c1.843-1.382,2.995-0.921,2.995-0.921c1.383,1.382,2.304,2.765,2.304,2.765c-1.612,2.304-1.843,5.529,0,7.372
			c1.844,1.843,5.068,2.304,6.912,0.461c2.073-1.843,2.073-5.068,0.23-6.912c-0.691-0.921-1.613-1.382-2.534-1.382
			c-0.23-2.304-0.23-3.687-0.23-3.687c1.843-2.304,4.607-2.304,4.607-2.304c2.073,2.765,4.838,4.146,7.372,3.687
			c2.534-0.922,3.917-3.687,3.226-5.99c-0.691-2.765-3.456-4.147-5.99-3.226c-2.073,0.922-2.304,0.922-2.304,0.922
			c-2.073-0.461-3.456-1.383-3.456-1.383c-0.46-2.304,1.152-4.607,1.152-4.607c4.146-1.383,6.682-3.226,7.142-5.529
			c0.461-2.765-1.151-5.068-3.916-5.99c-2.534-0.461-5.068,1.383-5.529,4.147c-0.461,1.843-1.844,3.225-1.844,3.225
			c-2.073,0.922-2.994,0.461-2.994,0.461c-1.152-1.382-1.383-3.226-1.383-3.226c2.073-3.225,2.534-5.989,1.152-8.294
			c-1.613-2.304-4.608-2.765-6.912-0.921c-2.073,1.382-2.534,4.146-1.151,6.45c1.151,1.383,1.612,2.765,1.612,2.765
			c0,1.383-0.461,2.765-0.461,2.765c-1.151,1.383-2.534,2.305-2.534,2.305c-0.691-0.461-3.456-1.844-3.456-1.844l-4.607-5.068
			l-5.76-6.451l-4.146-3.686l-2.995-1.383l-3.456-1.382l-6.682-1.844l-2.765-1.382l-1.843-2.765l-0.23-4.147l0.691-4.146
			l1.612-4.608l3.456-7.833l5.299-7.833l5.299-8.754l3.226-5.99l3.456-6.912l1.382-3.226c1.844-1.382,3.456-1.843,3.456-1.843
			l2.534,0.461l2.534,1.382C173.122,103.069,173.122,103.069,173.122,103.069z M207.91,47.315c-1.383,0-2.304-0.921-2.304-0.921
			c-0.691-0.921-0.691-2.304-0.691-2.304c0.691-1.843,2.304-4.147,2.304-4.147c2.073-0.922,4.838-1.843,4.838-1.843h2.534
			c2.305,0.921,3.456,1.843,3.456,1.843c0.461,1.843-0.23,3.225-0.23,3.225c-1.612-2.304-5.068-3.225-7.603-1.382
			C208.371,42.708,207.449,45.012,207.91,47.315L207.91,47.315z M228.645,62.521c0.23-2.304-0.46-2.765-0.46-2.765
			c-1.613-0.921-3.917-1.382-3.917-1.382l-2.534,0.461l-2.304,1.382c-1.844,1.843-2.995,4.608-2.995,4.608
			c-0.23,1.843,0.23,3.225,0.23,3.225c1.843,1.382,3.686,0.921,3.686,0.921c-0.921-1.843-0.69-3.686,0.691-5.068
			C222.885,61.139,226.11,60.678,228.645,62.521L228.645,62.521z"/>
	</g>
</g>
<g id="greenO">
	<g>
		<path fill="#73A950" d="M511.564,86.11l0.385,0.308c1.161,0.93,2.258,1.808,3.374,3.147l0.317,0.382l8.587-7.071l-0.286-0.382
			c-1.051-1.399-2.245-2.554-3.511-3.777c-0.443-0.428-0.901-0.871-1.375-1.345l-0.4-0.4l-6.798,8.741L511.564,86.11z"/>
		<path fill="#73A950" d="M481.565,89.523c0.872-1.308,1.957-2.18,3.317-3.087l0.455-0.304l-7.398-9.184l-0.392,0.448
			c-0.68,0.777-1.415,1.483-2.126,2.166c-0.989,0.951-1.925,1.85-2.736,2.932l-0.29,0.388l8.867,7.094L481.565,89.523z"/>
		<path fill="#73A950" d="M517.124,92.274l0.212,0.425c0.697,1.395,1.355,2.713,1.803,4.5l0.131,0.521l10.912-3.554l-0.184-0.489
			c-0.934-2.492-1.845-4.618-2.785-6.499l-0.235-0.47l-9.442,5.327L517.124,92.274z"/>
		<path fill="#73A950" d="M467.161,94.351l0.797,0.234l9.629,3.136l0.131-0.521c0.454-1.814,0.89-3.125,1.774-4.451l0.302-0.453
			l-10.148-5.582l-0.232,0.465c-0.865,1.73-1.473,3.456-2.009,4.978c-0.188,0.533-0.367,1.042-0.546,1.521l-0.184,0.489l0.434,0.141
			C467.129,94.319,467.139,94.344,467.161,94.351z"/>
		<path fill="#73A950" d="M495.678,124.687l-1.254,11.037l0.451,0.09c1.179,0.236,2.374,0.355,3.554,0.355
			c1.179,0,2.374-0.12,3.553-0.355l0.451-0.09l-1.254-11.037H495.678z"/>
		<path fill="#73A950" d="M479.492,113.39c-0.885-1.327-1.322-2.639-1.785-4.028l-0.15-0.451l-10.365,2.893l-0.487,0.146
			l0.146,0.488c0.688,2.293,1.399,4.665,2.586,6.563l0.251,0.401l10.106-5.559L479.492,113.39z"/>
		<path fill="#73A950" d="M488.107,122.006l-0.453-0.302l-5.331,9.692l-0.206,0.501l0.498,0.221c2.025,0.9,4.12,1.831,6.412,2.747
			l0.51,0.204l3.293-11.147l-0.484-0.139C490.898,123.371,489.485,122.924,488.107,122.006z"/>
		<path fill="#73A950" d="M484.959,120.225c-0.363-0.364-0.712-0.696-1.044-1.012c-0.911-0.871-1.699-1.622-2.35-2.598l-0.303-0.454
			l-8.867,7.094l0.29,0.388c1.248,1.665,3.039,3.542,4.913,5.148l0.38,0.327l7.308-8.566L484.959,120.225z"/>
		<path fill="#73A950" d="M476.429,105.87c0.008-0.001,0.013-0.01,0.021-0.011l0.362-0.049v-5.5l-11.086-1.008l-0.049,0.493
			c-0.233,2.326-0.233,4.685,0,7.011l0.051,0.516l10.415-1.42L476.429,105.87z"/>
		<path fill="#73A950" d="M515.323,116.573c-0.562,0.673-1.113,1.225-1.697,1.809c-0.574,0.574-1.168,1.168-1.758,1.877
			l-0.266,0.318l7.018,8.522l0.382-0.287c1.396-1.048,2.784-2.461,4.214-4.252c0.232-0.27,0.469-0.537,0.692-0.813
			c0.023-0.029,0.016-0.065,0.029-0.098c0.001-0.002,0.002-0.003,0.004-0.005l0.286-0.382l-8.587-7.071L515.323,116.573z"/>
		<path fill="#73A950" d="M508.749,122.006c-1.157,0.771-2.529,1.219-3.74,1.614l-0.977,0.323l3.293,11.147l7.229-3.213
			l-5.344-10.179L508.749,122.006z"/>
		<path fill="#73A950" d="M531.18,99.794l-0.049-0.492l-11.397,1.014l0.089,0.532c0.222,1.329,0.222,3.114,0,4.443l-0.085,0.509
			l11.392,1.519l0.051-0.514C531.413,104.479,531.413,102.12,531.18,99.794z"/>
		<path fill="#73A950" d="M519.149,109.362c-0.447,1.343-1.139,2.727-1.815,4.082l-0.213,0.425l9.815,5.537l0.253-0.405
			c1.068-1.708,2.043-3.981,2.819-6.572l0.146-0.488l-10.855-3.029L519.149,109.362z"/>
		<path fill="#73A950" d="M495.678,81.452h0.147c0.07,0.049,0.155,0.078,0.239,0.07c0.29-0.031,0.583-0.051,0.876-0.07h2.885
			c0.293,0.02,0.585,0.039,0.875,0.07c0.013,0.001,0.025,0.002,0.038,0.002c0.073,0,0.145-0.029,0.205-0.072h0.235l1.265-11.137
			h-8.03L495.678,81.452z"/>
		<path fill="#73A950" d="M489.144,71.701c-0.004,0.001-0.008-0.002-0.012-0.001c-0.013,0.004-0.024,0.008-0.037,0.012
			c-2.348,0.473-4.475,1.417-6.536,2.332l-0.497,0.221l5.593,10.17l0.453-0.302c1.376-0.917,2.79-1.365,4.238-1.778l0.491-0.141
			l-3.279-10.595L489.144,71.701z"/>
		<path fill="#73A950" d="M505.015,82.52c1.209,0.395,2.579,0.843,3.734,1.613l0.462,0.308l5.344-10.18l-0.487-0.217
			c-2.062-0.916-4.192-1.863-6.315-2.335l-0.45-0.1l-0.098,0.316c-0.002,0.006-0.01,0.008-0.012,0.014l-0.135,0.457l-3.031,9.796
			L505.015,82.52z"/>
	</g>
</g>
<g id="motorControls">
	<g id="TEXT">
		<g>
			<path fill="#73A950" d="M240.209,199.183v-54.486h8.682l10.317,38.579c0.952,3.593,1.645,6.281,2.081,8.065
				c0.496-1.982,1.269-4.894,2.319-8.734l10.437-37.91h7.76v54.486h-5.56v-45.604l-12.667,45.604h-5.203l-12.607-46.384v46.384
				H240.209z"/>
			<path fill="#73A950" d="M287.166,172.646c0-9.044,1.943-16.124,5.828-21.24c3.885-5.116,8.9-7.675,15.045-7.675
				c4.023,0,7.651,1.202,10.882,3.604c3.23,2.404,5.694,5.755,7.389,10.054s2.542,9.175,2.542,14.625
				c0,5.525-0.892,10.469-2.676,14.83c-1.784,4.36-4.312,7.662-7.582,9.904c-3.271,2.243-6.799,3.363-10.585,3.363
				c-4.103,0-7.771-1.238-11.001-3.716s-5.679-5.86-7.344-10.146C287.998,181.962,287.166,177.428,287.166,172.646z
				 M293.112,172.757c0,6.566,1.413,11.739,4.237,15.518c2.824,3.778,6.367,5.668,10.629,5.668c4.341,0,7.914-1.908,10.719-5.724
				c2.805-3.815,4.208-9.229,4.208-16.242c0-4.435-0.6-8.307-1.799-11.614c-1.2-3.308-2.954-5.872-5.263-7.693
				s-4.901-2.732-7.775-2.732c-4.084,0-7.597,1.754-10.541,5.26C294.584,158.702,293.112,164.557,293.112,172.757z"/>
			<path fill="#73A950" d="M345.184,199.183v-48.057h-14.361v-6.43h34.55v6.43h-14.42v48.057H345.184z"/>
			<path fill="#73A950" d="M366.242,172.646c0-9.044,1.943-16.124,5.828-21.24c3.885-5.116,8.9-7.675,15.045-7.675
				c4.023,0,7.651,1.202,10.883,3.604c3.23,2.404,5.693,5.755,7.389,10.054c1.694,4.299,2.541,9.175,2.541,14.625
				c0,5.525-0.891,10.469-2.676,14.83c-1.783,4.36-4.311,7.662-7.582,9.904c-3.27,2.243-6.799,3.363-10.584,3.363
				c-4.103,0-7.771-1.238-11.001-3.716s-5.679-5.86-7.344-10.146C367.075,181.962,366.242,177.428,366.242,172.646z
				 M372.189,172.757c0,6.566,1.413,11.739,4.237,15.518c2.824,3.778,6.367,5.668,10.629,5.668c4.341,0,7.914-1.908,10.719-5.724
				c2.805-3.815,4.208-9.229,4.208-16.242c0-4.435-0.601-8.307-1.799-11.614c-1.2-3.308-2.955-5.872-5.264-7.693
				c-2.309-1.821-4.901-2.732-7.775-2.732c-4.084,0-7.597,1.754-10.541,5.26C373.661,158.702,372.189,164.557,372.189,172.757z"/>
			<path fill="#73A950" d="M413.26,199.183v-54.486h19.326c3.885,0,6.838,0.489,8.86,1.468c2.022,0.979,3.638,2.708,4.847,5.186
				s1.813,5.216,1.813,8.214c0,3.865-1.001,7.123-3.003,9.774s-5.095,4.336-9.277,5.055c1.527,0.917,2.687,1.821,3.479,2.713
				c1.685,1.933,3.28,4.349,4.787,7.248l7.582,14.829h-7.255l-5.769-11.336c-1.685-3.271-3.073-5.772-4.163-7.508
				c-1.09-1.733-2.066-2.948-2.928-3.642c-0.863-0.693-1.74-1.177-2.632-1.45c-0.654-0.173-1.725-0.26-3.212-0.26h-6.689v24.195
				H413.26z M419.027,168.743h12.398c2.637,0,4.698-0.34,6.186-1.022c1.486-0.681,2.615-1.771,3.389-3.271
				c0.773-1.499,1.16-3.128,1.16-4.887c0-2.577-0.748-4.695-2.245-6.355s-3.86-2.49-7.091-2.49h-13.797V168.743z"/>
			<path fill="#73A950" d="M500.78,180.079l5.769,1.821c-1.209,5.922-3.385,10.438-6.527,13.547
				c-3.142,3.11-6.982,4.664-11.521,4.664c-4.697,0-8.518-1.194-11.462-3.586c-2.943-2.391-5.184-5.854-6.72-10.389
				c-1.536-4.534-2.305-9.402-2.305-14.606c0-5.673,0.867-10.623,2.602-14.848s4.203-7.434,7.404-9.626
				c3.201-2.193,6.725-3.289,10.57-3.289c4.36,0,8.027,1.388,11.001,4.162c2.974,2.775,5.044,6.678,6.214,11.708l-5.679,1.672
				c-1.011-3.964-2.478-6.851-4.4-8.659s-4.341-2.714-7.255-2.714c-3.35,0-6.15,1.004-8.399,3.011
				c-2.25,2.007-3.831,4.702-4.743,8.084s-1.367,6.87-1.367,10.462c0,4.634,0.539,8.679,1.621,12.135
				c1.08,3.457,2.76,6.04,5.039,7.75c2.279,1.709,4.747,2.564,7.404,2.564c3.23,0,5.965-1.165,8.205-3.494
				C498.471,188.12,499.987,184.663,500.78,180.079z"/>
			<path fill="#73A950" d="M509.708,172.646c0-9.044,1.942-16.124,5.828-21.24c3.885-5.116,8.899-7.675,15.045-7.675
				c4.023,0,7.651,1.202,10.882,3.604c3.23,2.404,5.694,5.755,7.389,10.054c1.695,4.299,2.543,9.175,2.543,14.625
				c0,5.525-0.893,10.469-2.676,14.83c-1.785,4.36-4.313,7.662-7.582,9.904c-3.271,2.243-6.8,3.363-10.586,3.363
				c-4.103,0-7.77-1.238-11.001-3.716s-5.679-5.86-7.344-10.146C510.541,181.962,509.708,177.428,509.708,172.646z M515.654,172.757
				c0,6.566,1.413,11.739,4.238,15.518c2.824,3.778,6.367,5.668,10.629,5.668c4.342,0,7.914-1.908,10.719-5.724
				s4.207-9.229,4.207-16.242c0-4.435-0.6-8.307-1.799-11.614s-2.953-5.872-5.263-7.693s-4.901-2.732-7.774-2.732
				c-4.084,0-7.598,1.754-10.541,5.26S515.654,164.557,515.654,172.757z"/>
			<path fill="#73A950" d="M556.576,199.183v-54.486h5.916l22.895,42.779v-42.779h5.531v54.486h-5.917l-22.895-42.815v42.815
				H556.576z"/>
			<path fill="#73A950" d="M609.51,199.183v-48.057h-14.361v-6.43h34.549v6.43h-14.42v48.057H609.51z"/>
			<path fill="#73A950" d="M633.512,199.183v-54.486h19.326c3.885,0,6.839,0.489,8.861,1.468c2.021,0.979,3.637,2.708,4.846,5.186
				s1.814,5.216,1.814,8.214c0,3.865-1.002,7.123-3.003,9.774c-2.003,2.651-5.095,4.336-9.277,5.055
				c1.526,0.917,2.686,1.821,3.479,2.713c1.685,1.933,3.281,4.349,4.787,7.248l7.582,14.829h-7.255l-5.768-11.336
				c-1.686-3.271-3.073-5.772-4.163-7.508c-1.091-1.733-2.066-2.948-2.929-3.642s-1.739-1.177-2.632-1.45
				c-0.653-0.173-1.724-0.26-3.211-0.26h-6.689v24.195H633.512z M639.28,168.743h12.398c2.636,0,4.698-0.34,6.185-1.022
				c1.486-0.681,2.616-1.771,3.39-3.271c0.772-1.499,1.159-3.128,1.159-4.887c0-2.577-0.748-4.695-2.244-6.355
				c-1.497-1.66-3.861-2.49-7.092-2.49H639.28V168.743z"/>
			<path fill="#73A950" d="M673.451,172.646c0-9.044,1.942-16.124,5.828-21.24c3.885-5.116,8.899-7.675,15.045-7.675
				c4.023,0,7.651,1.202,10.882,3.604c3.231,2.404,5.694,5.755,7.39,10.054c1.694,4.299,2.542,9.175,2.542,14.625
				c0,5.525-0.893,10.469-2.677,14.83c-1.783,4.36-4.311,7.662-7.581,9.904c-3.271,2.243-6.8,3.363-10.586,3.363
				c-4.103,0-7.771-1.238-11.001-3.716c-3.231-2.478-5.679-5.86-7.344-10.146C674.284,181.962,673.451,177.428,673.451,172.646z
				 M679.398,172.757c0,6.566,1.412,11.739,4.236,15.518c2.825,3.778,6.368,5.668,10.63,5.668c4.341,0,7.914-1.908,10.719-5.724
				s4.207-9.229,4.207-16.242c0-4.435-0.6-8.307-1.799-11.614s-2.953-5.872-5.263-7.693s-4.901-2.732-7.775-2.732
				c-4.083,0-7.597,1.754-10.54,5.26S679.398,164.557,679.398,172.757z"/>
			<path fill="#73A950" d="M720.141,199.183v-54.486h5.769v48.057h21.467v6.43H720.141z"/>
			<path fill="#73A950" d="M750.091,181.677l5.441-0.595c0.257,2.727,0.857,4.962,1.799,6.709s2.403,3.159,4.386,4.237
				c1.981,1.077,4.212,1.616,6.689,1.616c2.2,0,4.143-0.408,5.828-1.227c1.685-0.817,2.938-1.938,3.761-3.363
				c0.823-1.425,1.234-2.979,1.234-4.664c0-1.71-0.396-3.202-1.189-4.479s-2.102-2.348-3.925-3.215
				c-1.17-0.57-3.757-1.456-7.76-2.658c-4.005-1.201-6.81-2.335-8.415-3.4c-2.081-1.362-3.633-3.054-4.653-5.073
				c-1.021-2.02-1.531-4.28-1.531-6.783c0-2.75,0.625-5.32,1.873-7.712c1.249-2.391,3.072-4.205,5.472-5.444
				c2.397-1.239,5.063-1.858,7.998-1.858c3.23,0,6.08,0.65,8.548,1.951s4.366,3.215,5.694,5.742
				c1.327,2.527,2.041,5.389,2.141,8.585l-5.53,0.521c-0.298-3.443-1.304-6.045-3.019-7.805c-1.714-1.759-4.247-2.639-7.597-2.639
				c-3.488,0-6.031,0.799-7.626,2.396c-1.596,1.599-2.394,3.525-2.394,5.78c0,1.957,0.564,3.567,1.694,4.831
				c1.11,1.264,4.009,2.559,8.697,3.884c4.688,1.326,7.903,2.484,9.648,3.476c2.537,1.462,4.41,3.314,5.619,5.557
				s1.814,4.825,1.814,7.749c0,2.898-0.665,5.631-1.992,8.195c-1.328,2.564-3.236,4.559-5.724,5.983
				c-2.488,1.425-5.288,2.137-8.4,2.137c-3.944,0-7.25-0.719-9.916-2.155s-4.757-3.599-6.273-6.485S750.17,185.319,750.091,181.677z
				"/>
		</g>
	</g>
</g>
<g id="black">
	<g>
		<path d="M787.38,81.398c0.195,0,0.354-0.159,0.354-0.354V70.723c0-0.196-0.159-0.354-0.354-0.354h-48.657
			c-0.195,0-0.354,0.159-0.354,0.354V135.6c0,0.196,0.159,0.354,0.354,0.354h48.657c0.195,0,0.354-0.159,0.354-0.354v-10.321
			c0-0.196-0.159-0.354-0.354-0.354h-37.981v-16.985h37.981c0.195,0,0.354-0.159,0.354-0.354v-8.847
			c0-0.196-0.159-0.354-0.354-0.354h-37.981V81.398H787.38z M787.38,125.278h-38.336H787.38z"/>
		<path d="M622.298,109.414l5.856,0l1.913-0.096l1.895-0.283l1.857-0.467l1.804-0.647l1.731-0.821l1.642-0.986l1.539-1.143
			l1.418-1.288l1.284-1.42l1.141-1.54l0.983-1.644l0.818-1.732l0.644-1.805l0.464-1.859l0.278-1.895l0.093-1.914l-0.096-1.913
			l-0.282-1.895l-0.467-1.858l-0.647-1.803l-0.821-1.731l-0.986-1.642l-1.143-1.538l-1.287-1.419l-1.421-1.285l-1.54-1.14
			l-1.645-0.983l-1.732-0.818l-1.805-0.644l-1.858-0.464l-1.895-0.279l-1.896-0.093h-35.388c-0.195,0-0.354,0.159-0.354,0.354V135.6
			c0,0.196,0.159,0.354,0.354,0.354h10.321c0.195,0,0.354-0.159,0.354-0.354v-30.516l29.809,30.763
			c0.067,0.069,0.159,0.108,0.255,0.108h13.98c0.143,0,0.271-0.086,0.327-0.217c0.055-0.131,0.025-0.283-0.074-0.385
			L622.298,109.414z M603.425,81.398l21.745,0l1.122,0.054l1.11,0.163l1.09,0.271l1.058,0.377l1.016,0.479l0.965,0.576l0.902,0.667
			l0.833,0.752l0.756,0.831l0.67,0.901l0.578,0.962l0.481,1.015l0.381,1.057l0.274,1.089l0.167,1.11l0.057,1.121l-0.054,1.122
			l-0.163,1.111l-0.271,1.089l-0.377,1.058l-0.479,1.016l-0.575,0.964l-0.668,0.903l-0.753,0.833l-0.83,0.755l-0.9,0.67
			l-0.963,0.579l-1.015,0.482l-1.057,0.38l-1.089,0.274l-1.11,0.167l-1.139,0.056h-21.703c-0.021,0-0.04,0.002-0.06,0.005V81.398z"
			/>
		<path d="M660.575,70.368h-10.321c-0.195,0-0.354,0.159-0.354,0.354V135.6c0,0.196,0.159,0.354,0.354,0.354h10.321
			c0.195,0,0.354-0.159,0.354-0.354V70.723C660.93,70.527,660.771,70.368,660.575,70.368z"/>
		<path d="M735.773,70.368h-11.437c-0.137,0-0.261,0.079-0.319,0.202l-23.752,49.765l-24.885-49.771
			c-0.061-0.12-0.184-0.196-0.317-0.196h-11.54c-0.123,0-0.237,0.064-0.302,0.168c-0.064,0.104-0.07,0.235-0.016,0.345
			l32.438,64.877c0.061,0.12,0.184,0.196,0.317,0.196h8.848c0.137,0,0.261-0.079,0.319-0.202l30.964-64.877
			c0.053-0.11,0.045-0.239-0.02-0.342C736.008,70.431,735.896,70.368,735.773,70.368z"/>
		<path d="M443.547,102.285l34.157-31.301c0.107-0.099,0.144-0.253,0.091-0.39s-0.184-0.226-0.33-0.226h-15.277
			c-0.089,0-0.174,0.033-0.239,0.093l-28.089,25.739V70.723c0-0.196-0.159-0.354-0.354-0.354h-10.321
			c-0.195,0-0.354,0.159-0.354,0.354V135.6c0,0.196,0.159,0.354,0.354,0.354h10.321c0.195,0,0.354-0.159,0.354-0.354v-27.231
			l30.002,27.492c0.065,0.06,0.15,0.093,0.239,0.093h15.277c0.146,0,0.277-0.09,0.33-0.226s0.017-0.291-0.091-0.39L443.547,102.285z
			"/>
		<path d="M353.883,70.368h-48.658c-0.196,0-0.354,0.159-0.354,0.354V135.6c0,0.196,0.159,0.354,0.354,0.354h48.658
			c0.196,0,0.354-0.159,0.354-0.354v-10.321c0-0.196-0.159-0.354-0.354-0.354h-37.982v-16.985h37.982
			c0.196,0,0.354-0.159,0.354-0.354v-8.847c0-0.196-0.159-0.354-0.354-0.354h-37.982V81.398h37.982c0.196,0,0.354-0.159,0.354-0.354
			V70.723C354.238,70.527,354.079,70.368,353.883,70.368z"/>
		<path d="M367.935,98.935l0.517-2.071l0.717-2.01l0.911-1.93l1.096-1.832l1.27-1.715l1.432-1.583l1.58-1.435l1.714-1.273
			l1.83-1.099l1.929-0.914l2.009-0.721l2.071-0.52l2.111-0.315l2.132-0.106l2.132,0.103l2.112,0.312l2.071,0.517l2.01,0.718
			l1.931,0.911l1.832,1.096l1.715,1.271l1.583,1.432l1.436,1.581l1.272,1.713l1.099,1.83l0.914,1.929l0.304,0.851
			c0.032,0.089,0.098,0.162,0.184,0.202c0.087,0.041,0.185,0.045,0.272,0.012l9.689-3.557c0.183-0.067,0.277-0.269,0.212-0.452
			l-0.46-1.281l-1.378-2.909l-1.656-2.759l-1.918-2.583l-2.162-2.384l-2.386-2.16l-2.586-1.916l-2.761-1.653l-2.91-1.375
			l-3.03-1.083l-3.122-0.78l-3.184-0.471l-3.214-0.156l-3.214,0.16l-3.183,0.474l-3.121,0.784l-3.03,1.085l-2.908,1.378
			l-2.759,1.655l-2.584,1.918l-2.383,2.163l-2.16,2.386l-1.915,2.585l-1.653,2.761l-1.374,2.91l-1.083,3.031l-0.78,3.122
			l-0.471,3.184l-0.156,3.214l0.159,3.214l0.474,3.183l0.784,3.122l1.086,3.029l1.377,2.908l1.656,2.759l1.918,2.584l2.163,2.383
			l2.385,2.16l2.586,1.916l2.761,1.653l2.909,1.374l3.031,1.083l3.122,0.78l3.183,0.47l3.18,0.156c0.006,0,0.012,0,0.018,0
			s0.012,0,0.018,0l3.213-0.16l3.183-0.474l3.122-0.784l3.029-1.086l2.909-1.377l2.759-1.656l2.584-1.918l2.383-2.163l2.159-2.385
			l1.916-2.586l1.653-2.761l1.375-2.91l0.446-1.249c0.065-0.183-0.029-0.385-0.212-0.452l-9.689-3.557
			c-0.089-0.033-0.187-0.029-0.272,0.012c-0.086,0.04-0.151,0.113-0.184,0.202l-0.29,0.818l-0.911,1.931l-1.096,1.832l-1.271,1.716
			l-1.433,1.582l-1.58,1.435l-1.714,1.273l-1.829,1.099l-1.93,0.915l-2.009,0.72l-2.071,0.521l-2.111,0.315l-2.131,0.106
			l-2.132-0.103l-2.112-0.312l-2.071-0.517l-2.01-0.717l-1.93-0.911l-1.832-1.096l-1.716-1.27l-1.582-1.432l-1.435-1.58
			l-1.273-1.714l-1.099-1.83l-0.915-1.929l-0.72-2.009l-0.521-2.071l-0.315-2.111l-0.106-2.132l0.103-2.132L367.935,98.935z"/>
		<path d="M302.276,102.807h-32.438c-0.196,0-0.354,0.159-0.354,0.354v10.321c0,0.196,0.159,0.354,0.354,0.354h18.929l-0.834,1.394
			l-1.27,1.716l-1.432,1.582l-1.581,1.435l-1.714,1.273l-1.83,1.099l-1.929,0.915l-2.009,0.72l-2.071,0.521l-2.111,0.315
			l-2.132,0.106l-2.132-0.103l-2.112-0.312l-2.071-0.517l-2.01-0.717l-1.93-0.911l-1.832-1.096l-1.716-1.27l-1.583-1.432
			l-1.435-1.58l-1.273-1.714l-1.099-1.83l-0.914-1.93l-0.721-2.008l-0.52-2.071l-0.315-2.111l-0.106-2.132l0.103-2.132l0.312-2.112
			l0.517-2.07l0.718-2.011l0.911-1.93l1.096-1.832l1.271-1.715l1.432-1.583l1.581-1.435l1.714-1.273l1.83-1.099l1.929-0.914
			l2.009-0.721l2.071-0.52l2.111-0.315l2.131-0.106l2.132,0.103l2.112,0.312l2.071,0.517l2.011,0.718l1.93,0.911l1.832,1.096
			l1.716,1.271l1.583,1.432l1.435,1.581l1.273,1.713l1.099,1.83l0.915,1.929l0.283,0.791c0.032,0.089,0.098,0.162,0.184,0.202
			c0.086,0.04,0.185,0.045,0.273,0.011l9.68-3.585c0.182-0.067,0.276-0.269,0.21-0.451l-0.428-1.192l-1.378-2.909l-1.656-2.759
			l-1.918-2.583l-2.163-2.384l-2.385-2.16l-2.586-1.916l-2.761-1.653l-2.91-1.375l-3.031-1.083l-3.122-0.78l-3.184-0.471
			l-3.215-0.156l-3.214,0.16l-3.183,0.474l-3.121,0.784l-3.03,1.085l-2.908,1.378l-2.759,1.655l-2.584,1.918l-2.384,2.163
			l-2.16,2.386l-1.916,2.585l-1.653,2.761l-1.375,2.91l-1.083,3.03l-0.78,3.122l-0.471,3.184l-0.156,3.214l0.16,3.214l0.474,3.183
			l0.784,3.121l1.085,3.03l1.378,2.908l1.655,2.759l1.918,2.584l2.163,2.383l2.386,2.16l2.586,1.916l2.761,1.653l2.909,1.374
			l3.031,1.083l3.122,0.78l3.183,0.47l3.179,0.156c0.006,0,0.012,0,0.018,0s0.012,0,0.018,0l3.214-0.16l3.183-0.474l3.122-0.784
			l3.029-1.086l2.908-1.377l2.759-1.656l2.584-1.918l2.383-2.163l2.16-2.385l1.915-2.586l1.653-2.761l1.375-2.91l1.083-3.031
			l0.78-3.122l0.471-3.184l0.156-3.18c0.005-0.097-0.031-0.192-0.097-0.262C302.466,102.847,302.374,102.807,302.276,102.807z"/>
		<path d="M589.521,96.747l-0.783-3.122l-1.086-3.029l-1.378-2.909l-1.656-2.759l-1.918-2.583l-2.162-2.384l-2.386-2.16
			l-2.586-1.916l-2.762-1.653l-2.909-1.375l-3.031-1.083l-3.122-0.78l-3.183-0.471l-3.197-0.157H533.77
			c-0.195,0-0.354,0.159-0.354,0.354V135.6c0,0.196,0.159,0.354,0.354,0.354h23.592c0.006,0,0.012,0,0.018,0l3.214-0.16l3.183-0.474
			l3.121-0.784l3.03-1.086l2.908-1.377l2.759-1.656l2.585-1.918l2.383-2.163l2.159-2.385l1.916-2.586l1.653-2.761l1.375-2.91
			l1.082-3.031l0.78-3.122l0.47-3.183l0.156-3.215l-0.159-3.213L589.521,96.747z M579.466,103.126l-0.104,2.167l-0.314,2.146
			l-0.523,2.105l-0.728,2.043l-0.924,1.962l-1.113,1.862l-1.29,1.745l-1.453,1.609l-1.604,1.459l-1.741,1.295l-1.859,1.118
			l-1.959,0.931l-2.041,0.733l-2.104,0.531l-2.145,0.322l-2.184,0.109l-13.288,0.013l0.001-44.235l13.252,0.013l2.15,0.104
			l2.146,0.315l2.105,0.523l2.043,0.728l1.963,0.924l1.862,1.112l1.745,1.29l1.609,1.454l1.459,1.606l1.295,1.74l1.118,1.859
			l0.931,1.959l0.734,2.041l0.529,2.104l0.322,2.146L579.466,103.126z"/>
	</g>
</g>
</svg>
