<?xml version="1.0" encoding="utf-8"?>
<!-- Generator: Adobe Illustrator 16.0.0, SVG Export Plug-In . SVG Version: 6.00 Build 0)  -->
<!DOCTYPE svg PUBLIC "-//W3C//DTD SVG 1.1//EN" "http://www.w3.org/Graphics/SVG/1.1/DTD/svg11.dtd">
<svg version="1.1" id="gecko" xmlns="http://www.w3.org/2000/svg" xmlns:xlink="http://www.w3.org/1999/xlink" x="0px" y="0px"
	 width="239.373px" height="285.536px" viewBox="0 0 239.373 285.536" enable-background="new 0 0 239.373 285.536"
	 xml:space="preserve">
<g id="HATCH_9_">
	<path fill-rule="evenodd" clip-rule="evenodd" fill="#73A950" d="M173.252,103.069l3.455,3.686l2.534,3.686l2.305,1.843
		l2.994,1.843l3.226,0.461l3.917-0.461l2.995-0.461c2.073,0,3.686,0,3.686,0c1.383,1.382,1.613,2.765,1.613,2.765
		c-3.687,2.304-5.99,4.147-6.221,6.912s1.843,5.069,4.607,5.069c2.535,0,4.839-1.843,5.069-4.608c0-0.921-0.23-1.843-0.461-2.765
		l1.151-2.304c2.304-0.46,2.995,0,2.995,0c-0.921,3.687-0.921,6.912,0.691,8.755c1.843,2.304,5.068,2.304,6.911,0.461
		c2.074-1.843,2.074-5.068,0.23-6.912c-0.46-0.461-1.382-0.921-2.304-1.382l-1.151-2.765c0.921-2.304,2.534-2.765,2.534-2.765
		c2.765,3.226,5.529,4.607,8.063,4.147c2.534-0.921,4.146-3.226,3.456-5.99c-0.461-2.765-3.226-4.147-5.76-3.686
		c-2.305,1.382-3.456,0.921-3.456,0.921c-2.304-0.46-2.765-1.382-2.765-1.382c0-1.843,0.922-2.765,0.922-2.765
		c3.455,0.461,6.22-0.461,7.603-3.226c1.151-2.304,0.23-5.068-2.304-6.451c-2.305-0.921-5.299,0-6.451,2.304
		c-0.461,2.304-3.226,4.607-3.226,4.607c-1.843,0-2.304-0.921-2.304-0.921c-0.691-1.382-0.922-2.765-0.922-2.765
		c2.304-1.382,2.995-4.608,1.383-6.912c-1.383-1.843-4.378-2.765-6.682-1.382c-2.073,1.382-2.765,4.608-1.382,6.912
		c1.843,1.382,2.073,2.765,2.073,2.765v2.765c-1.843,1.382-3.226,1.843-3.226,1.843h-2.534c-0.23,0-5.299-0.921-5.299-0.921
		c-2.304-0.921-4.146-2.304-4.146-2.304l-2.765-5.529l-2.074-5.529l-0.461-3.226l1.383-2.765l3.456-2.304l5.99-1.382l9.676-2.765
		l7.603-1.843l7.373-2.304l5.989-2.304l3.687-2.304l4.377-4.607l2.995-4.608l3.226-6.912l1.844-5.068
		c0-2.304-0.461-4.608-0.461-4.608c-0.922-1.382-2.995-3.686-2.995-3.686l-5.76-2.304l-8.063-0.921l-6.912-0.921l-6.911,0.921
		l-5.99,2.304l-7.603,3.687l-6.451,5.068l-9.216,6.451l-6.911,4.147l-4.607,1.382l-4.378-1.382l-4.377-3.226l-3.226-4.607
		l-2.765-4.608l-0.691-4.147l0.461-8.294l0.23-7.372c1.843-1.843,4.838-1.843,4.838-1.843c0.922,2.304,3.456,3.686,6.221,3.226
		c2.534-0.922,3.917-3.687,3.226-5.99c-0.922-2.765-3.456-4.147-5.99-3.226c-2.534,1.382-4.147,1.382-4.147,1.382
		c-2.073-2.304-2.073-3.225-2.073-3.225l2.534-2.765c2.534,0.46,5.068-1.382,5.529-3.687c0.461-2.765-1.382-5.529-4.146-5.99
		c-2.534,0-5.068,1.382-5.529,4.147c0,0.921,0,1.843,0.461,2.765c-1.844,1.382-3.226,1.382-3.226,1.382
		c-1.383-0.461-2.534-2.304-2.534-2.304c2.073-2.765,2.765-5.529,1.151-7.833c-1.382-2.304-4.377-2.765-6.681-1.382
		c-2.074,1.382-2.765,4.608-1.383,6.451c0.691,0.922,1.613,1.843,2.534,2.304c0,2.304-0.69,3.686-0.69,3.686
		c-1.383,0.921-2.765,0.461-2.765,0.461c-2.074-3.226-4.378-5.529-7.143-5.069c-2.534,0-4.607,2.304-4.377,5.069
		s2.534,4.607,5.299,4.607c2.073-0.921,4.607,0,4.607,0c0.922,1.843,0.23,2.304,0.23,2.304l-2.995,1.382
		c-2.304-1.382-5.299-0.461-6.681,1.843c-1.152,2.304-0.461,5.529,1.843,6.451c2.304,1.382,5.299,0.46,6.681-1.843
		c0.461-1.843,2.765-2.304,2.765-2.304c1.844,0,2.535,1.382,2.535,1.382c0.229,1.843-0.23,7.833-0.23,7.833l-1.844,7.373
		l-1.151,4.607v3.226l0.921,3.686l2.534,5.069l3.226,6.451l0.922,3.225c-0.461,1.843-1.612,3.687-1.612,3.687
		c-2.305,1.382-10.599,6.912-10.599,6.912l-7.833,5.99l-7.833,8.294l-4.838,6.451l-4.147,6.912l-2.995,6.912l-2.304,7.372
		l-2.073,6.451l-1.383,6.451l-0.69,6.451l-0.461,2.765l-0.922,2.765c-0.921,0.922-2.765,1.844-2.765,1.844
		c-1.612,0.46-4.377-0.922-4.377-0.922L89.852,145l-2.995-2.304l-2.534-1.382l-2.995-0.461h-2.995l-4.147,1.843l-3.225,1.843
		l-4.378,3.226l-4.146,2.765c-2.074,0.921-4.147,1.382-4.147,1.382c-2.073-2.304-2.995-4.607-2.995-4.607
		c2.534-3.226,3.456-5.99,2.304-8.755c-1.382-2.304-4.146-3.226-6.681-1.843c-2.304,0.921-3.226,4.146-2.073,6.45
		c2.304,2.305,1.612,4.608,1.612,4.608c-1.612,1.843-3.226,2.304-3.226,2.304c-1.151-0.461-3.226-2.765-3.226-2.765
		c0.461-2.304-1.151-5.068-3.686-5.529s-5.299,0.921-5.76,3.687c-0.691,2.765,1.151,5.068,3.686,5.529
		c2.074,0,4.608,2.765,4.608,2.765c0.461,1.843,0,3.225,0,3.225c-1.152,0.461-4.378,1.844-4.378,1.844
		c-1.843-1.844-4.838-1.844-6.681,0.461c-1.844,1.843-1.844,5.068,0.23,6.911c1.843,1.843,5.068,1.383,6.911-0.461
		c0.922-1.843,4.147-2.765,4.147-2.765c2.073,1.383,2.534,1.844,2.534,1.844c0.23,1.382,0,3.225,0,3.225
		c-2.995,2.305-4.608,5.069-3.917,7.373c0.461,2.765,3.226,4.146,5.76,3.686c2.534-0.46,4.147-3.225,3.687-5.989
		c-0.23-0.922-0.691-1.383-1.613-2.305c0.922-1.843,2.305-3.225,2.305-3.225c1.612-0.461,2.534,0,2.534,0l2.073,2.765
		c-1.152,2.304-0.461,5.529,1.843,6.911c2.534,1.383,5.299,0.461,6.682-1.843c1.382-2.304,0.461-5.529-1.844-6.912
		c-0.921-0.461-1.843-0.461-2.765-0.461l-1.151-2.765c0.23-2.304,1.151-2.765,1.151-2.765c1.152-0.921,6.682-3.225,6.682-3.225
		l5.068-1.383h2.995l2.534,0.922l4.378,2.304l8.523,5.99l6.221,5.529l2.995,3.686l2.073,4.608l0.461,7.833l-1.151,5.99l-2.074,5.529
		l-2.534,4.607l-4.607,4.607l-6.682,4.608l-8.984,3.226l-8.294,2.764l-11.52,2.766l-10.598,1.382l-7.143,1.843l-8.294,2.765
		l-7.142,3.226l-6.912,4.607l-5.989,5.529l-4.147,6.451l-3.226,5.99l-2.073,8.755L0,269.409l0.23,6.911l0.691,5.529l1.152,3.687
		l0.46-5.99l1.613-6.451l2.304-6.45l3.687-5.99l3.916-4.607l4.147-4.608l4.607-4.146l4.607-2.304l6.912-2.305l10.367-2.304
		l14.054-2.304l15.436-0.922l11.75-2.304l7.603-2.304l8.755-3.226l5.99-3.226l6.912-4.607l4.607-4.146l3.916-5.99l3.917-8.294
		l2.995-8.294l1.612-5.529c0.691-2.305,2.305-4.147,2.305-4.147l2.534-1.843l3.916-1.843l2.995-1.383
		c1.843-0.922,5.068-1.843,5.068-1.843l2.995,0.461l4.378,2.304l6.911,5.529l5.76,3.686c1.612,0.461,3.226,1.383,3.226,1.383
		c0.922,1.843,0.922,3.226,0.922,3.226c-0.691,1.843-1.383,3.225-1.383,3.225c-2.534-0.46-4.838,1.844-5.068,4.608
		c0,2.304,2.073,4.607,4.607,5.068c2.765,0,5.068-2.304,5.068-4.607c-0.46-2.304,0.691-4.608,0.691-4.608
		c1.843-1.382,2.995-0.921,2.995-0.921c1.383,1.382,2.304,2.765,2.304,2.765c-1.612,2.304-1.843,5.529,0,7.372
		c1.844,1.843,5.068,2.304,6.912,0.461c2.073-1.843,2.073-5.068,0.23-6.912c-0.691-0.921-1.613-1.382-2.534-1.382
		c-0.23-2.304-0.23-3.687-0.23-3.687c1.843-2.304,4.607-2.304,4.607-2.304c2.073,2.765,4.838,4.146,7.372,3.687
		c2.534-0.922,3.917-3.687,3.226-5.99c-0.691-2.765-3.456-4.147-5.99-3.226c-2.073,0.922-2.304,0.922-2.304,0.922
		c-2.073-0.461-3.456-1.383-3.456-1.383c-0.46-2.304,1.152-4.607,1.152-4.607c4.146-1.383,6.682-3.226,7.142-5.529
		c0.461-2.765-1.151-5.068-3.916-5.99c-2.534-0.461-5.068,1.383-5.529,4.147c-0.461,1.843-1.844,3.225-1.844,3.225
		c-2.073,0.922-2.994,0.461-2.994,0.461c-1.152-1.382-1.383-3.226-1.383-3.226c2.073-3.225,2.534-5.989,1.152-8.294
		c-1.613-2.304-4.608-2.765-6.912-0.921c-2.073,1.382-2.534,4.146-1.151,6.45c1.151,1.383,1.612,2.765,1.612,2.765
		c0,1.383-0.461,2.765-0.461,2.765c-1.151,1.383-2.534,2.305-2.534,2.305c-0.691-0.461-3.456-1.844-3.456-1.844l-4.607-5.068
		l-5.76-6.451l-4.146-3.686l-2.995-1.383l-3.456-1.382l-6.682-1.844l-2.765-1.382l-1.843-2.765l-0.23-4.147l0.691-4.146l1.612-4.608
		l3.456-7.833l5.299-7.833l5.299-8.754l3.226-5.99l3.456-6.912l1.382-3.226c1.844-1.382,3.456-1.843,3.456-1.843l2.534,0.461
		l2.534,1.382C173.252,103.069,173.252,103.069,173.252,103.069z M208.04,47.315c-1.383,0-2.304-0.921-2.304-0.921
		c-0.691-0.921-0.691-2.304-0.691-2.304c0.691-1.843,2.304-4.147,2.304-4.147c2.073-0.922,4.838-1.843,4.838-1.843h2.534
		c2.305,0.921,3.456,1.843,3.456,1.843c0.461,1.843-0.23,3.225-0.23,3.225c-1.612-2.304-5.068-3.225-7.603-1.382
		C208.501,42.708,207.579,45.012,208.04,47.315L208.04,47.315z M228.774,62.521c0.23-2.304-0.46-2.765-0.46-2.765
		c-1.613-0.921-3.917-1.382-3.917-1.382l-2.534,0.461l-2.304,1.382c-1.844,1.843-2.995,4.608-2.995,4.608
		c-0.23,1.843,0.23,3.225,0.23,3.225c1.843,1.382,3.686,0.921,3.686,0.921c-0.921-1.843-0.69-3.686,0.691-5.068
		C223.015,61.139,226.24,60.678,228.774,62.521L228.774,62.521z"/>
</g>
</svg>
